<svg width="280" height="237" viewBox="0 0 280 237" fill="none" xmlns="http://www.w3.org/2000/svg">
<path d="M5 231.432C5.2517 225.643 6.8834 220.038 8.22222 214.432C12.0606 198.359 15.1943 182.16 18 165.877C24.2846 129.403 26.6034 92.1998 30.0556 55.3766C31.1848 43.331 34.2551 28.6658 31.5 16.5432C29.6688 8.48606 31.5868 20.2053 32 22.4321C35.1125 39.2051 38.2464 55.6209 42.7778 72.0988C46.0186 83.8836 48.4032 96.9363 58.3333 105.154C75.0218 118.965 104.545 29.7661 108.333 20.3766C109.8 16.742 111.652 8.5268 114.889 6.09878C115.778 5.43175 115.028 8.32074 115 9.43212C114.877 14.3325 113.696 19.2603 113 24.0988C108.291 56.8269 102.325 89.3681 101 122.488C100.353 138.657 97.6032 155.089 99.5556 171.265C100.652 180.352 101.771 189.604 102 198.765C102.055 200.958 105.258 218.303 107 217.432" stroke="#3D93F0" stroke-width="10" stroke-linecap="round"/>
<path d="M167 10.4321C165.729 52.3758 158.415 94.9321 162.556 136.932C164.096 152.553 167 168.025 167 183.765C167 186.954 166.835 197.849 170 199.432" stroke="#3D93F0" stroke-width="10" stroke-linecap="round"/>
<path d="M244 14.4321C243.263 33.5931 239 52.0764 239 71.4321C239 88.9734 239.907 106.167 241.222 123.654C241.869 132.255 243.088 141.24 245 149.654C247.282 159.697 253.108 168.327 257.444 177.543C261.118 185.349 264.319 204.205 274 207.432" stroke="#3D93F0" stroke-width="10" stroke-linecap="round"/>
<path d="M163 103.432C187.693 105.332 212.233 105.432 237 105.432" stroke="#3D93F0" stroke-width="10" stroke-linecap="round"/>
</svg>
